<svg xmlns="http://www.w3.org/2000/svg" viewBox="0 0 35 35"><defs><style>.cls-1{fill:#fff;}</style></defs><g id="Layer_2" data-name="Layer 2"><g id="Layer_1-2" data-name="Layer 1"><path class="cls-1" d="M34.82,14.48a.7.7,0,0,0-.48-.28l-4.17-.64a14.4,14.4,0,0,0-.93-2.24c.27-.37.68-.91,1.23-1.6s.93-1.2,1.16-1.52a.86.86,0,0,0,.18-.52.72.72,0,0,0-.16-.5A31.08,31.08,0,0,0,27.89,3.3a.87.87,0,0,0-.57-.22.73.73,0,0,0-.55.2L23.54,5.72a13.7,13.7,0,0,0-2.05-.84L20.85.68a.7.7,0,0,0-.26-.49A.86.86,0,0,0,20,0H15a.77.77,0,0,0-.82.64,36,36,0,0,0-.66,4.24,12.05,12.05,0,0,0-2.07.86L8.27,3.3a1,1,0,0,0-.59-.22c-.34,0-1,.54-2.15,1.63A22.66,22.66,0,0,0,3.28,7.15a1,1,0,0,0-.2.53.88.88,0,0,0,.22.55c1,1.23,1.83,2.27,2.44,3.14a11.79,11.79,0,0,0-.89,2.1L.62,14.1a.72.72,0,0,0-.44.3.89.89,0,0,0-.18.53V20a.88.88,0,0,0,.18.54.7.7,0,0,0,.48.28l4.17.62a10.46,10.46,0,0,0,.94,2.25c-.28.38-.69.92-1.24,1.61s-.93,1.2-1.16,1.52a.86.86,0,0,0-.18.52.85.85,0,0,0,.16.52,29.42,29.42,0,0,0,3.76,3.83.78.78,0,0,0,.57.25.8.8,0,0,0,.57-.2l3.21-2.44a14.15,14.15,0,0,0,2,.84l.64,4.2a.7.7,0,0,0,.26.49A.86.86,0,0,0,15,35H20a.77.77,0,0,0,.82-.64,36,36,0,0,0,.66-4.24,11.73,11.73,0,0,0,2.07-.86l3.15,2.46a1.07,1.07,0,0,0,.59.2c.34,0,1.05-.54,2.14-1.61a21.9,21.9,0,0,0,2.26-2.47.72.72,0,0,0,.2-.52.87.87,0,0,0-.22-.57c-1.1-1.34-1.91-2.38-2.44-3.14a15.8,15.8,0,0,0,.89-2.08l4.21-.63a.74.74,0,0,0,.46-.3.89.89,0,0,0,.18-.53V15A.88.88,0,0,0,34.82,14.48Zm-13.2,7.14a5.59,5.59,0,0,1-4.12,1.71,5.84,5.84,0,0,1-5.83-5.83,5.84,5.84,0,0,1,5.83-5.83,5.84,5.84,0,0,1,5.83,5.83A5.59,5.59,0,0,1,21.62,21.62Z"/></g></g></svg>