<svg xmlns="http://www.w3.org/2000/svg" viewBox="0 0 60 51"><defs><style>.cls-1{fill:#fff;}.cls-2{fill:none;stroke:#fff;stroke-linecap:round;stroke-miterlimit:10;stroke-width:2px;}</style></defs><g id="Layer_2" data-name="Layer 2"><g id="Layer_1-2" data-name="Layer 1"><path class="cls-1" d="M46.59,10.05a13.87,13.87,0,0,0-2.91.32A18.52,18.52,0,0,0,9.2,13.57a11.66,11.66,0,0,0,2.58,23.06H46.59a13.29,13.29,0,1,0,0-26.58Z"/><line class="cls-2" x1="16.83" y1="42.31" x2="23.61" y2="42.31"/><line class="cls-2" x1="17.83" y1="44.7" x2="22.62" y2="39.92"/><line class="cls-2" x1="20.22" y1="45.69" x2="20.22" y2="38.93"/><line class="cls-2" x1="22.62" y1="44.7" x2="17.83" y2="39.92"/><line class="cls-2" x1="26.37" y1="46.62" x2="33.15" y2="46.62"/><line class="cls-2" x1="27.36" y1="49.01" x2="32.15" y2="44.23"/><line class="cls-2" x1="29.76" y1="50" x2="29.76" y2="43.24"/><line class="cls-2" x1="32.15" y1="49.01" x2="27.36" y2="44.23"/><line class="cls-2" x1="36.39" y1="43.24" x2="43.17" y2="43.24"/><line class="cls-2" x1="37.38" y1="45.63" x2="42.17" y2="40.85"/><line class="cls-2" x1="39.78" y1="46.62" x2="39.78" y2="39.87"/><line class="cls-2" x1="42.17" y1="45.63" x2="37.38" y2="40.85"/></g></g></svg>