<svg xmlns="http://www.w3.org/2000/svg" viewBox="0 0 90 80"><defs><style>.cls-1{fill:#fff;}</style></defs><g id="Layer_2" data-name="Layer 2"><g id="Layer_1-2" data-name="Layer 1"><path class="cls-1" d="M48.18,1.84,59.61,23.41a2.35,2.35,0,0,0,1.78,1.2L87,28.07a3.24,3.24,0,0,1,2,5.62L70.42,50.48a2.12,2.12,0,0,0-.68,2l4.37,23.71c.5,2.69-2.54,4.75-5.14,3.47L46.1,68.42a2.5,2.5,0,0,0-2.2,0L21,79.61c-2.6,1.28-5.64-.78-5.14-3.47l4.37-23.71a2.12,2.12,0,0,0-.68-2L1.07,33.69a3.24,3.24,0,0,1,2-5.62l25.57-3.46a2.35,2.35,0,0,0,1.78-1.2L41.82,1.84A3.67,3.67,0,0,1,48.18,1.84Z"/></g></g></svg>