<svg xmlns="http://www.w3.org/2000/svg" viewBox="0 0 650 130"><defs><style>.cls-1{fill:#fff;}.cls-2{fill:#b3b3b3;}</style></defs><g id="Layer_2" data-name="Layer 2"><g id="Layer_1-2" data-name="Layer 1"><path class="cls-1" d="M65,128A63,63,0,0,1,65,2H585a63,63,0,0,1,0,126Z"/><path class="cls-2" d="M585,4a60.92,60.92,0,0,1,43.08,104.08A60.56,60.56,0,0,1,585,126H65A60.92,60.92,0,0,1,21.92,21.92,60.56,60.56,0,0,1,65,4H585m0-4H65A65.19,65.19,0,0,0,0,65H0a65.19,65.19,0,0,0,65,65H585a65.19,65.19,0,0,0,65-65h0A65.19,65.19,0,0,0,585,0Z"/></g></g></svg>