<svg xmlns="http://www.w3.org/2000/svg" viewBox="0 0 768 432"><defs><style>.cls-1{fill:#333;}.cls-2{fill:#ffba00;}</style></defs><g id="Layer_2" data-name="Layer 2"><g id="Layer_1-2" data-name="Layer 1"><rect class="cls-1" x="5" y="5" width="758" height="422" rx="35"/><path class="cls-2" d="M728,10a30,30,0,0,1,30,30V392a30,30,0,0,1-30,30H40a30,30,0,0,1-30-30V40A30,30,0,0,1,40,10H728m0-10H40A40.12,40.12,0,0,0,0,40V392a40.12,40.12,0,0,0,40,40H728a40.12,40.12,0,0,0,40-40V40A40.12,40.12,0,0,0,728,0Z"/></g></g></svg>