<svg xmlns="http://www.w3.org/2000/svg" viewBox="0 0 220 90"><defs><style>.cls-1{fill:#e6e6e6;}.cls-2{fill:#f0a223;}.cls-3{fill:#333;}.cls-4,.cls-5{fill:none;stroke:#333;stroke-width:1.1px;}.cls-4{stroke-miterlimit:10;}.cls-5{stroke-linecap:round;stroke-linejoin:round;}</style></defs><g id="Layer_2" data-name="Layer 2"><g id="Layer_1-2" data-name="Layer 1"><rect class="cls-1" x="2.46" y="2.66" width="215.07" height="84.85" rx="7.82"/><path class="cls-2" d="M210,3a7,7,0,0,1,7,7V80a7,7,0,0,1-7,7H10a7,7,0,0,1-7-7V10a7,7,0,0,1,7-7H210m0-3H10A10,10,0,0,0,0,10V80A10,10,0,0,0,10,90H210a10,10,0,0,0,10-10V10A10,10,0,0,0,210,0Z"/><path class="cls-3" d="M199.5,54.93H20.74a.49.49,0,0,1-.49-.5.5.5,0,0,1,.49-.5H199.5a.5.5,0,0,1,.5.5A.5.5,0,0,1,199.5,54.93Z"/><circle class="cls-4" cx="171.76" cy="17.8" r="5"/><polyline class="cls-5" points="171.76 14.61 171.76 17.8 173.44 18.68"/></g></g></svg>