<svg xmlns="http://www.w3.org/2000/svg" viewBox="0 0 650 447"><defs><style>.cls-1{fill:#fff;}.cls-2{fill:#b3b3b3;}</style></defs><g id="Layer_2" data-name="Layer 2"><g id="Layer_1-2" data-name="Layer 1"><path class="cls-1" d="M4,361V20A16,16,0,0,1,20,4H630a16,16,0,0,1,16,16V361Z"/><path class="cls-2" d="M630,8a12,12,0,0,1,12,12V357H8V20A12,12,0,0,1,20,8H630m0-8H20A20.06,20.06,0,0,0,0,20V365H650V20A20.06,20.06,0,0,0,630,0Z"/><path class="cls-1" d="M13.21,443A9.22,9.22,0,0,1,4,433.79V361H646v72.79a9.22,9.22,0,0,1-9.21,9.21Z"/><path class="cls-2" d="M642,365v68.79a5.27,5.27,0,0,1-5.21,5.21H13.21A5.27,5.27,0,0,1,8,433.79V365H642m8-8H0v76.79A13.24,13.24,0,0,0,13.21,447H636.79A13.24,13.24,0,0,0,650,433.79V357Z"/></g></g></svg>