<svg xmlns="http://www.w3.org/2000/svg" viewBox="0 0 600 412"><defs><style>.cls-1{fill:#b3b3b3;}.cls-2{fill:#fff;}</style></defs><g id="Layer_2" data-name="Layer 2"><g id="Layer_1-2" data-name="Layer 1"><path class="cls-1" d="M580,8a12,12,0,0,1,12,12V328.42H8V20A12,12,0,0,1,20,8H580m0-8H20A20.06,20.06,0,0,0,0,20V336.42H600V20A20.06,20.06,0,0,0,580,0Z"/><path class="cls-2" d="M13.21,408A9.22,9.22,0,0,1,4,398.79V333.05H596v65.74a9.22,9.22,0,0,1-9.2,9.21Z"/><path class="cls-1" d="M592,337.05v61.74a5.27,5.27,0,0,1-5.21,5.21H13.21A5.27,5.27,0,0,1,8,398.79V337.05H592m8-8H0v69.74A13.24,13.24,0,0,0,13.21,412H586.79A13.24,13.24,0,0,0,600,398.79V329.05Z"/></g></g></svg>