<svg xmlns="http://www.w3.org/2000/svg" viewBox="0 0 470 97.09"><defs><style>.cls-1{fill:#e6e6e6;}.cls-2{fill:#00c609;}.cls-3{fill:#88ff8b;}.cls-4{font-size:14px;font-family:Poppins-SemiBoldItalic, Poppins;font-weight:600;font-style:italic;}</style></defs><g id="Layer_2" data-name="Layer 2"><g id="Layer_1-2" data-name="Layer 1"><path class="cls-1" d="M24,86A23,23,0,0,1,1.05,63.07v-28A23,23,0,0,1,24,12.11H436A23,23,0,0,1,459,35.05V86Z"/><path class="cls-2" d="M436,13.16a21.92,21.92,0,0,1,21.9,21.89V85H24a21.93,21.93,0,0,1-21.9-21.9v-28A21.92,21.92,0,0,1,24,13.16H436m0-2.1H24a24.07,24.07,0,0,0-24,24v28a24.06,24.06,0,0,0,24,24H460v-52a24.07,24.07,0,0,0-24-24Z"/><rect class="cls-2" x="50" width="120" height="24" rx="12"/><circle class="cls-3" cx="460" cy="87.09" r="9"/><path class="cls-2" d="M460,79.09a8,8,0,1,1-8,8,8,8,0,0,1,8-8m0-2a10,10,0,1,0,10,10,10,10,0,0,0-10-10Z"/><circle class="cls-2" cx="459.93" cy="86.96" r="3.33"/></g><g id="text"><text class="cls-4" transform="translate(77.02 17.23)">CORRECT</text></g></g></svg>