<svg xmlns="http://www.w3.org/2000/svg" viewBox="0 0 470 81.03"><defs><style>.cls-1{fill:#e6e6e6;}.cls-2{fill:#00c609;}.cls-3{fill:#88ff8b;}.cls-4{font-size:14px;font-family:Poppins-SemiBoldItalic, Poppins;font-weight:600;font-style:italic;}</style></defs><g id="Layer_2" data-name="Layer 2"><g id="Layer_1-2" data-name="Layer 1"><path class="cls-1" d="M30,70.1A29.07,29.07,0,0,1,30,12H430A29.1,29.1,0,0,1,459.07,41V70.1Z"/><path class="cls-2" d="M430,12.89A28.17,28.17,0,0,1,458.14,41V69.17H30a28.14,28.14,0,0,1,0-56.28H430M430,11H30A30.09,30.09,0,0,0,0,41H0A30.09,30.09,0,0,0,30,71H460V41a30.09,30.09,0,0,0-30-30Z"/><rect class="cls-2" x="50" width="120" height="24" rx="12"/><circle class="cls-3" cx="460" cy="71.03" r="9"/><path class="cls-2" d="M460,63a8,8,0,1,1-8,8,8,8,0,0,1,8-8m0-2a10,10,0,1,0,10,10,10,10,0,0,0-10-10Z"/><circle class="cls-2" cx="459.93" cy="70.9" r="3.33"/></g><g id="text"><text class="cls-4" transform="translate(77.02 17.23)">CORRECT</text></g></g></svg>