<svg xmlns="http://www.w3.org/2000/svg" viewBox="0 0 470 81.03"><defs><style>.cls-1{fill:#e6e6e6;}.cls-2{fill:red;}.cls-3{fill:#ff7373;}.cls-4{font-size:14px;font-family:Poppins-SemiBoldItalic, Poppins;font-weight:600;font-style:italic;}</style></defs><g id="Layer_2" data-name="Layer 2"><g id="Layer_1-2" data-name="Layer 1"><path class="cls-1" d="M30,70a29,29,0,0,1,0-58H430a29,29,0,0,1,29,29V70Z"/><path class="cls-2" d="M430,13a28,28,0,0,1,28,28V69H30a28,28,0,0,1,0-56H430m0-2H30A30.09,30.09,0,0,0,0,41H0A30.09,30.09,0,0,0,30,71H460V41a30.09,30.09,0,0,0-30-30Z"/><rect class="cls-2" x="50" width="120" height="24" rx="12"/><circle class="cls-3" cx="460" cy="71.03" r="9"/><path class="cls-2" d="M460,63a8,8,0,1,1-8,8,8,8,0,0,1,8-8m0-2a10,10,0,1,0,10,10,10,10,0,0,0-10-10Z"/><circle class="cls-2" cx="459.93" cy="70.9" r="3.33"/></g><g id="text"><text class="cls-4" transform="translate(82.33 17.23)">WRONG</text></g></g></svg>